<svg width="191" height="18" viewBox="0 0 191 18" fill="none" xmlns="http://www.w3.org/2000/svg">
<path d="M22.2608 7.4336L20.1342 9.56018L22.7901 12.2161L24.9167 10.0895L22.2608 7.4336Z" fill="#CEF142"/>
<path d="M15.8805 9.561L12.6924 12.7491L9.50421 9.561L12.6924 6.37285L10.5669 4.24742L0 14.8143L2.12543 16.9398L7.37878 11.6864L12.6924 17L15.8805 13.8119L18.5394 16.4665L20.6649 14.3411L15.8805 9.561Z" fill="#CEF142"/>
<path d="M14.8179 -0.00239131L12.6913 2.12419L18.0032 7.43609L20.1298 5.3095L14.8179 -0.00239131Z" fill="#CEF142"/>
<path d="M34.6267 17.308C33.3107 17.308 32.2187 16.916 31.3927 16.258L31.8407 14.494C32.5827 15.138 33.4927 15.586 34.6127 15.586C35.6767 15.586 36.1807 15.082 36.1807 14.242C36.1807 13.164 35.3267 12.758 34.2627 12.268C33.0587 11.722 31.5887 11.008 31.5887 8.908C31.5887 7.004 32.7227 5.716 35.0047 5.716C36.0827 5.716 37.0347 6.024 37.7207 6.528L37.3007 8.292C36.6287 7.718 35.8867 7.438 35.0327 7.438C33.9827 7.438 33.5207 7.97 33.5207 8.768C33.5207 9.818 34.3607 10.21 35.4667 10.714C36.7127 11.274 38.1127 11.988 38.1127 14.088C38.1127 16.076 36.9647 17.308 34.6267 17.308ZM41.485 17.098H39.595V5.926H42.955C45.349 5.926 46.609 7.256 46.609 9.706C46.609 12.604 44.817 13.542 42.913 13.542H41.485V17.098ZM41.485 7.55V11.904H42.773C43.781 11.904 44.663 11.442 44.663 9.734C44.663 8.124 43.879 7.55 42.801 7.55H41.485ZM54.1918 17.098H47.9758V5.926H54.1078V7.592H49.8658V10.476H53.6318V12.114H49.8658V15.432H54.1918V17.098ZM57.6285 17.098H55.8645V5.926H57.6985L61.8005 13.612V5.926H63.5645V17.098H61.7305L57.6285 9.412V17.098ZM68.7486 17.098H65.6126V5.926H68.7626C72.1506 5.926 73.4246 8.138 73.4246 11.498C73.4246 15.362 71.7026 17.098 68.7486 17.098ZM67.5026 7.564V15.46H68.6926C70.4706 15.46 71.4226 14.298 71.4226 11.498C71.4226 9.034 70.6946 7.564 68.6646 7.564H67.5026ZM81.9287 17.098H80.0387V7.592H77.3367V5.926H84.6307V7.592H81.9287V17.098ZM87.7233 17.098H85.8333V5.926H89.1373C91.4893 5.926 92.7353 7.158 92.7353 9.524C92.7353 11.372 91.8673 12.338 90.9013 12.786L93.4773 17.098H91.2793L89.0813 13.15H87.7233V17.098ZM87.7233 7.55V11.582H89.1233C89.8933 11.582 90.7893 11.092 90.7893 9.552C90.7893 8.04 90.0473 7.55 88.9553 7.55H87.7233ZM95.7996 17.098H93.7976L97.0596 5.926H99.4256L102.702 17.098H100.644L99.9296 14.41H96.5136L95.7996 17.098ZM98.2216 7.9L96.9336 12.8H99.5096L98.2216 7.9ZM107.734 17.308C104.906 17.308 103.254 15.32 103.254 11.512C103.254 7.662 104.99 5.716 107.776 5.716C109.064 5.716 110.002 6.15 110.618 6.724L110.17 8.488C109.568 7.844 108.84 7.466 107.916 7.466C106.222 7.466 105.242 8.852 105.242 11.512C105.242 14.27 106.362 15.558 107.916 15.558C108.966 15.558 109.764 15.082 110.31 14.466L110.744 16.174C110.114 16.804 109.12 17.308 107.734 17.308ZM114.096 17.098H112.206V5.926H114.096V11.022L117.778 5.926H120.074V5.968L116.196 10.854L120.172 17.07V17.098H117.89L114.964 12.324L114.096 13.472V17.098Z" fill="white"/>
<path d="M131.464 17.049H130.568V13.661H130.008V12.982H130.568V12.492C130.568 11.407 131.205 11.127 131.87 11.127C132.08 11.127 132.325 11.155 132.458 11.197L132.409 11.981C132.283 11.939 132.101 11.904 131.94 11.904C131.604 11.904 131.464 12.065 131.464 12.513V12.982H132.311V13.661H131.464V17.049ZM134.173 17.14C133.179 17.14 132.493 16.412 132.493 15.012C132.493 13.626 133.179 12.891 134.173 12.891C135.167 12.891 135.853 13.626 135.853 15.012C135.853 16.412 135.167 17.14 134.173 17.14ZM134.173 16.37C134.663 16.37 134.943 15.915 134.943 15.012C134.943 14.116 134.663 13.661 134.173 13.661C133.683 13.661 133.403 14.116 133.403 15.012C133.403 15.915 133.683 16.37 134.173 16.37ZM137.413 17.049H136.517V12.982H137.35L137.371 13.577C137.588 13.08 137.91 12.905 138.288 12.905C138.47 12.905 138.631 12.94 138.708 12.982L138.631 13.857C138.512 13.801 138.372 13.766 138.204 13.766C137.847 13.766 137.532 13.955 137.413 14.459V17.049Z" fill="white"/>
<path d="M190.366 14.1118C189.099 13.0221 187.501 12.3274 185.78 12.1792V9.24695H184.34V16.9277H185.78V13.6251C187.182 13.7732 188.478 14.3622 189.502 15.2702L190.366 14.11V14.1118Z" fill="white"/>
<path d="M169.874 15.0111V11.5462H172.593V10.1251H165.575V11.5462H168.296V15.0111H164.979V16.434H168.296H169.874H173.189V15.0111H169.874Z" fill="white"/>
<path d="M154.664 14.2599V12.8193H150.536V14.2599H154.664Z" fill="white"/>
<path d="M143.548 15.5224V13.2107C145.264 13.2337 146.918 12.7206 148.3 11.7896L147.558 10.5024C146.4 11.3082 145 11.7525 143.547 11.7314V8.96658H142.069V17H149.201V15.5206H143.548V15.5224Z" fill="white"/>
<path d="M149.478 11.1213L148.727 9.81825L147.879 10.3155L148.627 11.6115L149.478 11.1213Z" fill="white"/>
<path d="M150.579 10.4777L149.827 9.17642L148.979 9.6719L149.727 10.9679L150.579 10.4777Z" fill="white"/>
<path d="M159.897 10.1145C160.105 9.76006 160.289 9.38625 160.442 8.9948L159.049 8.59807C158.381 10.1885 157.141 11.4087 155.643 12.084L156.346 13.3483C157.279 12.9092 158.125 12.2956 158.836 11.5357H161.953V11.7402C161.953 13.8967 160.224 15.6529 158.079 15.704L159.081 16.9965C161.518 16.4887 163.353 14.3251 163.353 11.7402V10.1145H159.896H159.897Z" fill="white"/>
<path d="M180.605 13.7362C181.108 13.0115 181.488 12.1969 181.711 11.3188C181.832 10.8392 181.908 10.3419 181.931 9.83235H175.03V11.3188H180.205C179.431 13.7433 177.167 15.5065 174.494 15.5242L175.305 16.9242C177.006 16.7302 178.531 15.9632 179.692 14.8224C180.328 15.4184 180.84 16.1342 181.196 16.9242L182.441 16.2312C182 15.2932 181.377 14.445 180.607 13.738L180.605 13.7362Z" fill="white"/>
</svg>
